<svg xmlns="http://www.w3.org/2000/svg" xmlns:xlink="http://www.w3.org/1999/xlink" version="1.1" x="0px" y="0px" width="67.59px" height="67.59px" viewBox="0 0 67.59 67.59" xml:space="preserve" class="style0">
<style>
.style0{enable-background: new 0 0 67.59 67.59;}
.st0{fill:#E01B22;}
.st1{fill:#FFCA05;}
</style>
<g>
	<g>
		<path class="st1" d="M0.4 0.002v32.223c0 12.757 3.539 19.986 9.579 26.018c6.054 6.047 14.6 9.346 23.821 9.346 c9.221 0 17.769-3.299 23.806-9.346c6.048-6.043 9.584-13.25 9.584-26.018V0.002H0.4z"/>
		<g>
			<path class="st0" d="M67.19 22.264H44.932V0.002H22.67v22.262H0.4v9.96c0 4.802 0.502 8.819 1.449 12.286H22.67v21.363 c3.502 1.125 7.255 1.715 11.13 1.715c3.876 0 7.63-0.591 11.132-1.716V44.51h20.81c0.947-3.465 1.448-7.481 1.448-12.286V22.264 z"/>
		</g>
		<path class="st1" d="M46.989 29.973c-1.206-1.73-3.552-1.747-4.761-0.079c2.524 0.996 2.744 3.479 1.636 5.432 c0 0-1.225-0.96-4.919-1.148c-1.905-0.1-2.737-0.1-2.737-0.1c-0.253-3.334 1.946-4.771 4.118-4.643 c-0.193-2.175-3.004-2.582-4.181-1.857c0.935-2.474-2.345-4.665-2.345-4.665s-3.295 2.191-2.348 4.665 c-1.177-0.724-3.991-0.318-4.185 1.857c2.161-0.128 4.371 1.309 4.128 4.643c0 0-0.843 0-2.749 0.1 c-3.689 0.188-4.916 1.148-4.916 1.148c-1.107-1.954-0.893-4.437 1.641-5.432c-1.204-1.668-3.567-1.651-4.76 0.079 c-1.157-2.54-4.724-1.874-4.724-1.874c2.624 3.399 5.415 8.052 7.396 12.274c0.779-0.457 2.701-1.334 5.519-1.528 c2.808-0.184 4.997-0.173 4.997-0.173s2.219-0.011 4.991 0.173c2.81 0.194 4.746 1.071 5.504 1.528 c1.998-4.222 4.784-8.875 7.416-12.274C51.711 28.099 48.137 27.433 46.989 29.973z"/>
	</g>
</g>
</svg>
