<svg xmlns="http://www.w3.org/2000/svg" xmlns:xlink="http://www.w3.org/1999/xlink" version="1.1" x="0px" y="0px" width="442.3637695px" height="85.2744141px" viewBox="0 0 442.3637695 85.2744141" xml:space="preserve" class="style0">
<style>
	.style0{enable-background:	new 0 0 442.3637695 85.2744141;}
	.st0{fill:#89C765;}
	.st1{fill:#231F20;}
	.st2{fill:#F47920;}
	.st3{fill:#5DA9DD;}
	.st4{fill:#FFFFFF;}
	.st5{fill:#6C8CC7;}
	.st6{fill:#39BB9D;}
	.st7{fill:#D54B2A;}
</style>
<g>
	<rect x="4.3" y="3.3" class="st3" width="38.2" height="73.8"/>
	<rect x="42.4" y="3.3" class="st5" width="38.2" height="73.8"/>
</g>
<path class="st4" d="M68.7324219 31.8759766c0.9052734-1.6679688 1.7788086-2.1259766 3.0986328-2.5664062 c0.8520508-0.2841797 2.1142578-0.0761719 2.9 0.2949219c4.0195312 2 5.1 6.3 5.9 8.7 c1.6254883-0.9248047 2.7827148-1.5595703 4.2470703-2.3964844c-1.5380859-3.6503906-4.1118164-8.046875-10.722168-11.9013672 c-2.3637695-1.3066406-4.2084961-1.9980469-6.0683594-2.4550781c0.0273438-0.8535156 0.074707-1.2138672 0.1230469-2.4472656 c1.4682617-0.5878906 2.9438477-1.6289062 3.9741211-2.7851562c0.7734375-0.8730469 1.2573242-2.9414062 1.2285156-3.6357422 c-0.0317383-0.6943359-0.112793-2.2998047-0.9482422-2.9960938c-1.1660156-1.1777344-2.878418-1.9550781-4.6245117-2.1904297 c-2.4804688-0.0634766-4.925293 0.4326172-6.3891602 2.0195312c-1.9277344 2.0947266-2.2763672 3.4882812-2.4970703 5.4 c0.0996094 1.2 0.3 4.3 4 4.7011719c-0.0410156 0.6591797-0.0556641 0.3310547-0.1108398 1.1 c-1.5976562-0.0957031-4.7924805 0.0458984-5.8383789 0.1035156c-3.4536133 0.2919922-5.4960938 0.75-7.8496094 1.4 c-2.4829102 0.6464844-4.5253906 1.5849609-6.6640625 2.5654297v5.2666016 c3.8173828-3.4179688 7.015625-4.5429688 9.6777344-4.7529297c1.3027344-0.234375 3.3 0.4 4.9 1.7 c1.5756836 2.1 1.7 3.5 1.4 5.4882812c-1.0244141 4.2822266-3.2607422 8.0087891-8.0771484 14.1 l-7.9047852 9.5585938V56.125c0.0058594 0 0 0 0 0l0 0c-0.0039062 0-0.0078125 0-0.0136719 0l0 0 c1.2670898 0 2.5 0.1 3.8 0.1669922L60.230957 43.7041016l2.4658203 17.1 c1.3076172 0.6 2.6 1.3 3.8 2.078125l0.0317383 0 c0.0400391-1.2373047-0.3466797-10.9863281-0.3466797-10.9863281c0.1582031-3.1464844-0.1044922-10.0654297 0.5917969-13.9746094 C67.2446289 35.3 67.8 33.5 68.7 31.8759766z"/>
<path class="st1" d="M24.6166992 43.7041016l14.0444336 12.5878906c1.2412109-0.1005859 2.4921875-0.1630859 3.7597656-0.1669922 v-0.046875l-7.9018555-9.5546875c-4.815918-6.0859375-7.0517578-9.8134766-8.0761719-14.09375 c-0.3061523-1.9794922-0.1591797-3.3427734 1.4165039-5.4882812c1.6328125-1.2822266 3.5849609-1.9199219 4.8876953-1.6845703 c2.6591797 0.2 5.9 1.3 9.7 4.75v-5.2578125c-2.1386719-0.9833984-4.1816406-1.921875-6.6640625-2.5664062 c-2.3535156-0.6103516-4.3964844-1.0703125-7.8476562-1.3623047c-1.0488281-0.0576172-4.2431641-0.1992188-5.8408203-0.1035156 c-0.0556641-0.7978516-0.0673828-0.4697266-0.1113281-1.1289062c3.6743164-0.4414062 3.8671875-3.5400391 3.96875-4.7001953 c-0.2207031-1.9121094-0.5693359-3.3037109-2.4985352-5.4003906c-1.4624023-1.5869141-3.9086914-2.0830078-6.3891602-2.0195312 c-1.7470703 0.2353516-3.4599609 1.0126953-4.6235352 2.1904297c-0.8374023 0.6962891-0.9189453 2.3017578-0.9487305 3 c-0.0302734 0.7 0.5 2.8 1.2 3.6357422c1.0283203 1.2 2.5 2.2 4 2.8 c0.0473633 1.2 0.1 1.6 0.1 2.4492188c-1.8579102 0.4550781-3.7041016 1.1474609-6.0673828 2.5 C4.1132812 27.8 1.5 32.2 0 35.8789062c1.4638672 0.8 2.6 1.5 4.2 2.4 c0.7436523-2.3955078 1.8476562-6.6904297 5.8681641-8.6738281c0.7856445-0.3701172 2.0488281-0.5791016 2.9003906-0.2949219 c1.3208008 0.4 2.2 0.9 3.1 2.5664062c0.9331055 1.6 1.5 3.5 2 6 c0.6982422 3.9 0.4 10.8 0.6 13.9746094c0 0-0.3857422 9.7490234-0.3442383 10.9892578l0.027832-0.0048828 c1.2236328-0.7490234 2.4882812-1.4433594 3.7958984-2.0800781L24.6166992 43.7041016z"/>
<g>
	<path class="st7" d="M27.859375 26.9414062c-1.5756836 2.1455078-1.7226562 3.5087891-1.4165039 5.5 c1.0244141 4.3 3.3 8 8.1 14.09375l7.9018555 9.5546875V30.0068359 c-3.8154297-3.4160156-7.0146484-4.5419922-9.6738281-4.75C31.4443359 25 29.5 25.7 27.9 26.9414062z"/>
	<path class="st2" d="M58.4067383 32.4335938c0.3056641-1.9794922 0.1586914-3.3417969-1.4169922-5.4882812 c-1.6347656-1.28125-3.5844727-1.9199219-4.887207-1.6855469c-2.6621094 0.2099609-5.8603516 1.3349609-9.6777344 4.8 v26.0722656l7.9047852-9.5585938C55.1459961 40.4 57.4 36.7 58.4 32.4335938z"/>
</g>
<g>
	<path class="st0" d="M42.4208984 56.125c-1.2675781 0.0039062-2.5185547 0.0664062-3.7597656 0.2 c-5.9282227 0.4863281-11.5161133 2.0517578-16.5107422 4.484375c-1.3076172 0.6367188-2.5722656 1.3310547-3.7958984 2.1 C12.4560547 66.5 7.6 71.4 4.3 77.1162109h38.1679688V56.125c0.0039062 0 0 0 0 0l0 0 H42.4208984z"/>
	<path class="st6" d="M66.4887695 62.8544922c-1.2192383-0.7470703-2.484375-1.4414062-3.7919922-2.078125 c-4.996582-2.4326172-10.5844727-3.9980469-16.512207-4.484375c-1.2392578-0.1005859-2.4926758-0.1630859-3.7597656-0.1669922l0 0 v20.9912109h38.1669922C77.2543945 71.4 72.4 66.5 66.5 62.8544922z"/>
</g>
<g>
	<path class="st1" d="M112.4130859 43.1044922h-6.0820312L91.9824219 3.2460938h6.0234375L106.921875 28.9 c0.7675781 2.3 1.8 5.3 2.6 8.2666016h0.0595703 c0.7675781-2.8359375 1.59375-5.4912109 2.7753906-8.6796875l9.1523438-25.2158203h5.5507812L112.4130859 43.1044922z"/>
	<path class="st1" d="M144.1748047 30.1132812c0 4.6074219-3.1894531 9.3310547-7.9716797 9.3 c-2.7167969 0-4.4873047-1.59375-4.4873047-4.0742188c0-2.6572266 2.2431641-5.7861328 12.4589844-5.7861328V30.1132812z M147.6582031 4.4873047c0-1.7705078-1.3574219-3.1884766-3.1289062-3.1884766s-3.1884766 1.4179688-3.1884766 3.2 c0 1.8 1.4 3.1 3.2 3.1298828S147.6582031 6.3 147.7 4.4873047z M136.3212891 4.5 c0-1.7705078-1.3583984-3.1884766-3.1298828-3.1884766s-3.1884766 1.4179688-3.1884766 3.2 c0 1.8 1.4 3.1 3.2 3.1298828S136.3212891 6.3 136.3 4.4873047z M149.6074219 43.1 c-0.0585938-2.5380859-0.1181641-5.6669922-0.1181641-8.4433594V22.9697266c0-5.8457031-2.4208984-9.8027344-10.8652344-9.8027344 c-3.8974609 0-7.4404297 0.9453125-10.2744141 2.1269531l0.53125 4.5 c2.5390625-1.5341797 6.0820312-2.4189453 8.8574219-2.4189453c4.8417969 0 6.4 2.2 6.4 6.2587891v2.1835938 c-11.1015625 0-17.65625 4.0751953-17.65625 10.5117188c0 4.7 3.3 7.3 8.1 7.3 s8.5615234-2.7744141 9.9794922-6.3779297h0.1171875c-0.2949219 1.6542969-0.2949219 3.7792969-0.2949219 5.8457031H149.6074219z"/>
	<path class="st1" d="M174.0527344 18.421875c-6.2001953-1.0625-9.1523438 3.4853516-9.1523438 12.8740234v11.8085938h-5.3144531 V13.7587891h5.1376953c0 1.8291016-0.1777344 4.5458984-0.6494141 6.9667969h0.1171875 c1.2402344-4.0742188 4.2519531-8.1494141 10.0986328-7.5L174.0527344 18.421875z"/>
	<path class="st1" d="M180.5478516 43.1044922V0h5.3154297v43.1044922H180.5478516z"/>
	<path class="st1" d="M213.4384766 27.9296875c0 5.1367188-2.7167969 11.3369141-8.03125 11.3 c-4.4287109 0-6.4951172-3.6005859-6.4951172-9.9199219c0-8.4433594 3.7207031-11.8095703 9.3300781-11.8095703 c1.6523438 0 3.4 0.2 5.2 0.6494141V27.9296875z M218.7524414 43.1044922V0h-5.3139648v13.640625 c-1.7714844-0.1777344-3.3662109-0.2958984-4.9599609-0.2958984c-9.2714844 0-15.1757812 6.2001953-15.1757812 16.5 c0 8.6 3.6 13.8 10.8 13.8173828c4.6064453 0 8.2080078-2.5986328 9.8613281-6.5537109l0.1181641 0.1 c-0.3544922 1.7128906-0.4726562 4.3095703-0.4726562 5.9628906H218.7524414z"/>
	<path class="st1" d="M245.6186523 24.328125h-13.6992188c0.5917969-4.3115234 3.3076172-7.2041016 7.1455078-7.2041016 C243.1987305 17.1 245.7 20 245.6 24.328125z M251.0522461 25.6 c0-6.7304688-3.4833984-12.3417969-11.7509766-12.3417969c-8.3261719 0-13.109375 6.5546875-13.109375 15.4 c0 10.3 4.8 15.1 13.9 15.0576172c3.6621094 0 7.0859375-0.6494141 9.9208984-1.8310547 l-0.4736328-4.3095703c-2.3613281 1.1210938-5.5507812 1.8291016-8.5605469 1.8 c-6.2607422 0-9.5078125-3.3652344-9.2714844-11.21875h19.1904297 C250.9936523 27.1 251.1 26.3 251.1 25.5673828z"/>
	<path class="st1" d="M277.4477539 43.1044922V24.1503906c0-4.1337891-1.1240234-6.5546875-5.0205078-6.5546875 c-4.8417969 0-8.3251953 4.9003906-8.3251953 11.3964844v14.1123047h-5.3154297V13.7587891h5.1376953 c0 1.7119141-0.1181641 4.4277344-0.4716797 6.140625l0.1162109 0.1 c1.7128906-4.0742188 5.3164062-6.7910156 10.3339844-6.7910156c6.7333984 0 8.9 4.2 8.9 9.3886719v20.5488281 H277.4477539z"/>
	<path class="st1" d="M297.3461914 43.6367188c-2.1855469 0-4.3691406-0.1777344-6.2011719-0.5322266l0.1787109-4.7226562 c1.8291016 0.6 4.2 1 6.4 1.0039062c3.8964844 0 6.5527344-1.7724609 6.5527344-4.4882812 c0-6.5556641-13.6396484-2.5390625-13.6396484-12.8720703c0-4.9599609 4.0732422-8.7998047 11.75-8.7998047 c1.7724609 0 3.8 0.2 5.6 0.5908203l-0.1191406 4.4 c-1.8291016-0.5917969-3.9550781-0.9462891-5.9033203-0.9462891c-3.8964844 0-5.8466797 1.6542969-5.8466797 4.2 c0 6.4 13.7 3 13.7 12.8125C309.8647461 39.6 305.1 43.6 297.3 43.6367188z"/>
	<g>
		<path class="st1" d="M349.7797852 13.5214844c0 4.3701172-3.484375 6.9677734-10.0390625 7 c-1.4169922 0-2.4794922 0-3.6005859-0.0585938V7.5585938c1.5947266-0.0595703 3.5419922-0.1181641 5.3730469-0.1181641 C347.9487305 7.4 349.8 10 349.8 13.5214844z M356.2758789 31.2 c0-4.1318359-2.4814453-8.2070312-8.0322266-9.1513672v-0.1181641c4.3115234-1.3583984 7.1464844-5.078125 7.1464844-9.2705078 c0-5.9648438-4.1923828-9.5664062-12.9326172-9.5664062c-4.78125 0-8.8574219 0.1171875-11.7509766 0.1757812v39.8583984 c3.8974609 0.1 7.8 0.2 10.2 0.2 C353.3237305 43.3 356.3 36 356.3 31.1767578z M350.6069336 31.4 c0 4.3701172-2.8935547 7.5-9.3896484 7.5c-2.3603516 0-4.0732422-0.1201172-5.0771484-0.2958984V24.6220703 c0.9453125-0.0585938 3.0107422-0.0585938 3.7197266-0.0585938 C346.0004883 24.6 350.6 26.2 350.6 31.3544922z"/>
		<path class="st1" d="M379.7172852 30.1132812c0 4.6074219-3.1894531 9.3310547-7.9726562 9.3 c-2.7158203 0-4.4873047-1.59375-4.4873047-4.0742188c0-2.6572266 2.2451172-5.7861328 12.4599609-5.7861328V30.1132812z M385.1489258 43.1044922c-0.0585938-2.5380859-0.1171875-5.6669922-0.1171875-8.4433594V22.9697266 c0-5.8457031-2.4208984-9.8027344-10.8652344-9.8027344c-3.8974609 0-7.4394531 0.9453125-10.2753906 2.1 l0.5322266 4.5449219c2.5400391-1.5341797 6.0830078-2.4189453 8.8583984-2.4189453 c4.8417969 0 6.4 2.2 6.4 6.2587891v2.1835938c-11.1015625 0-17.6552734 4.0751953-17.6552734 10.5 c0 4.7 3.3 7.3 8.1 7.2626953s8.5625-2.7744141 9.9794922-6.3779297h0.1171875 c-0.2939453 1.6542969-0.2939453 3.7792969-0.2939453 5.8457031H385.1489258z"/>
		<path class="st1" d="M409.5961914 18.421875c-6.1992188-1.0625-9.1523438 3.4853516-9.1523438 12.8740234v11.8085938h-5.3154297 V13.7587891h5.1367188c0 1.8291016-0.1748047 4.5458984-0.6494141 6.9667969h0.1191406 c1.2392578-4.0742188 4.2509766-8.1494141 10.0966797-7.5L409.5961914 18.421875z"/>
		<path class="st1" d="M434.7504883 43.1044922V24.1503906c0-4.1337891-1.1210938-6.5546875-5.0195312-6.5546875 c-4.8417969 0-8.3261719 4.9003906-8.3261719 11.3964844v14.1123047h-5.3134766V13.7587891h5.1357422 c0 1.7119141-0.1162109 4.4277344-0.4707031 6.140625l0.1171875 0.1 c1.7119141-4.0742188 5.3144531-6.7910156 10.3330078-6.7910156c6.7333984 0 8.9 4.2 8.9 9.3886719v20.5488281 H434.7504883z"/>
	</g>
</g>
<g>
	<g>
		<path class="st1" d="M116.2001953 60.7460938c0 2.3710938-1.8417969 3.9833984-5.0366211 4 c-0.887207 0-1.546875-0.0332031-1.8754883-0.0644531v-7.5722656c0.5917969-0.0332031 1.25-0.0644531 2.0078125-0.0644531 C114.5229492 57 116.2 58.1 116.2 60.7460938z M120.8110352 76.9121094l-6.2880859-7.9355469 c-0.5932617-0.7226562-1.2851562-1.5800781-1.9423828-2.3701172c3.8828125-0.2636719 6.78125-2.46875 6.78125-6.2548828 c0-4.2470703-3.1616211-5.7958984-7.5400391-5.7958984c-2.4350586 0-4.0478516 0.0351562-5.5629883 0.1328125v22.2236328 h3.0292969v-9.9775391h0.1308594l7.5400391 9.9775391H120.8110352z"/>
		<path class="st1" d="M132.6958008 69.6689453c0 2.5673828-1.777832 5.2011719-4.4467773 5.2 c-1.5126953 0-2.5009766-0.8896484-2.5009766-2.2705078c0-1.4824219 1.2509766-3.2275391 6.9477539-3.2275391V69.6689453z M135.7236328 76.9121094c-0.0322266-1.4160156-0.0654297-3.1611328-0.0654297-4.7080078v-6.5185547 c0-3.2587891-1.3500977-5.4658203-6.0576172-5.4658203c-2.1733398 0-4.1484375 0.5263672-5.7290039 1.1855469l0.2958984 2.5 c1.4160156-0.8564453 3.3911133-1.3496094 4.9384766-1.3496094c2.699707 0 3.6 1.2 3.6 3.4882812v1.2197266 c-6.1904297 0-9.8452148 2.2714844-9.8452148 5.8603516c0 2.6 1.8 4 4.5 4 c2.6992188 0 4.7729492-1.5439453 5.5634766-3.5517578h0.0654297c-0.1650391 0.9208984-0.1650391 2.1044922-0.1650391 3.3 H135.7236328z"/>
		<path class="st1" d="M151.0654297 68.4511719c0 2.8642578-1.5151367 6.3193359-4.4780273 6.3 c-2.4697266 0-3.6220703-2.0078125-3.6220703-5.5302734c0-4.7070312 2.0751953-6.5830078 5.2026367-6.5830078 c0.9223633 0 1.9 0.1 2.9 0.3613281V68.4511719z M154.0283203 76.9121094V52.8789062h-2.9628906v7.6054688 c-0.9873047-0.0986328-1.8759766-0.1650391-2.7666016-0.1650391c-5.1674805 0-8.4609375 3.4560547-8.4609375 9.2 c0 4.8 2 7.7 6 7.7011719c2.5673828 0 4.5751953-1.4472656 5.4975586-3.6513672l0.0664062 0 c-0.199707 0.9521484-0.2631836 2.4033203-0.2631836 3.3242188H154.0283203z"/>
		<path class="st1" d="M161.1064453 57.8486328c-1.0869141 0-1.9750977-0.8535156-1.9750977-1.9404297 c0-1.0546875 0.8881836-1.9111328 1.9750977-1.9111328c1.0864258 0 2 0.8 2 1.9 C163.0810547 57 162.2 57.8 161.1 57.8486328z M159.6245117 76.9121094V60.5498047h2.9624023 v16.3623047H159.6245117z"/>
		<path class="st1" d="M178.9165039 68.6162109c0 4.1796875-2.1054688 6.0888672-4.5415039 6.1 c-2.9970703 0-4.6098633-2.171875-4.6098633-6.1220703c0-4.0498047 2.2392578-5.8613281 4.6098633-5.8613281 C177.402832 62.7 178.9 64.9 178.9 68.6162109z M182.0117188 68.5 c0-5.8935547-3.1928711-8.1982422-7.3735352-8.1982422c-4.9379883 0-7.9682617 3.8183594-7.9682617 8.6 c0 5.8 2.9 8.3 7.3 8.328125C178.8515625 77.2 182 73.4 182 68.4511719z"/>
		<path class="st1" d="M196.5307617 76.9121094V66.3427734c0-2.3046875-0.6259766-3.6533203-2.7978516-3.6533203 c-2.7006836 0-4.6420898 2.7314453-4.6420898 6.3535156v7.8691406h-2.9648438V52.8789062h2.9648438v7.7353516 c0 1.0527344-0.0668945 2.4042969-0.2963867 3.2607422l0.0649414 0 c0.9555664-2.2412109 2.9628906-3.6884766 5.6958008-3.6884766c3.7519531 0 4.9 2.3 4.9 5.2353516v11.4570312 H196.5307617z"/>
		<path class="st1" d="M206.7695312 57.8486328c-1.0869141 0-1.9755859-0.8535156-1.9755859-1.9404297 c0-1.0546875 0.8886719-1.9111328 1.9755859-1.9111328c1.0532227 0 1.9 0.8 1.9 1.9 C208.7124023 57 207.8 57.8 206.8 57.8486328z M202.5878906 85.3 c-0.7241211 0-1.6132812-0.0996094-2.2719727-0.2988281l0.2631836-2.5976562 c0.6259766 0.2 1.4 0.4 2.1 0.3935547c2.0415039 0 2.6337891-0.8544922 2.6337891-3.7851562V60.5498047 h2.9306641v18.171875C208.2182617 83.1 206.9 85.3 202.6 85.2744141z"/>
		<path class="st1" d="M222.3735352 69.6689453c0 2.5673828-1.7763672 5.2011719-4.4438477 5.2 c-1.5136719 0-2.5019531-0.8896484-2.5019531-2.2705078c0-1.4824219 1.25-3.2275391 6.9458008-3.2275391V69.6689453z M224.315918 55.3798828c0-0.9873047-0.7568359-1.7763672-1.7441406-1.7763672s-1.7773438 0.7890625-1.7773438 1.8 s0.7900391 1.7 1.8 1.7460938S224.315918 56.4 224.3 55.3798828z M217.9956055 55.4 c0-0.9873047-0.7583008-1.7763672-1.7451172-1.7763672c-0.9873047 0-1.7773438 0.7890625-1.7773438 1.8 s0.7900391 1.7 1.8 1.7460938C217.2373047 57.1 218 56.4 218 55.3798828z M225.402832 76.9121094c-0.0322266-1.4160156-0.0664062-3.1611328-0.0664062-4.7080078v-6.5185547 c0-3.2587891-1.3496094-5.4658203-6.0566406-5.4658203c-2.1743164 0-4.1489258 0.5263672-5.7280273 1.1855469l0.2949219 2.5 c1.4165039-0.8564453 3.390625-1.3496094 4.9389648-1.3496094c2.6992188 0 3.6 1.2 3.6 3.4882812v1.2197266 c-6.1894531 0-9.8432617 2.2714844-9.8432617 5.8603516c0 2.6 1.8 4 4.5 4 c2.699707 0 4.7739258-1.5439453 5.5639648-3.5517578h0.0664062c-0.1660156 0.9208984-0.1660156 2.1044922-0.1660156 3.3 H225.402832z"/>
		<path class="st1" d="M230.9672852 76.9121094V52.8789062h2.9628906v24.0332031H230.9672852z"/>
		<path class="st1" d="M250.5893555 68.2207031c0 4.7089844-2.0751953 6.5839844-5.203125 6.6 c-1.1181641 0-2.0419922-0.1308594-2.8964844-0.3955078v-5.4003906c0-2.8623047 1.5146484-6.3193359 4.4775391-6.3193359 C249.4360352 62.7 250.6 64.7 250.6 68.2207031z M253.6821289 68 c0-5.0048828-2.171875-7.7050781-5.9902344-7.7050781c-2.6025391 0-4.5771484 1.3818359-5.5 3.6552734L242.1274414 63.9 c0.1982422-0.921875 0.2626953-2.4042969 0.2626953-3.3251953h-2.8642578v24.4941406h2.9638672v-8.1318359 c0.9541016 0.2 1.7 0.2 2.8 0.2 C250.5561523 77.1 253.7 73.8 253.7 67.9580078z"/>
		<path class="st1" d="M267.2797852 66.4423828h-7.6376953c0.3291016-2.4042969 1.84375-4.015625 3.9833984-4.015625 C265.9282227 62.4 267.3 64 267.3 66.4423828z M270.309082 67.1 c0-3.7519531-1.9433594-6.8808594-6.5517578-6.8808594c-4.6425781 0-7.3085938 3.6552734-7.3085938 8.6 c0 5.8 2.7 8.4 7.7 8.3925781c2.0410156 0 3.9521484-0.3603516 5.5302734-1.0185547l-0.2626953-2.4033203 c-1.3154297 0.625-3.0947266 1.0205078-4.7734375 1.0205078c-3.4892578 0-5.3007812-1.875-5.1699219-6.2539062h10.6992188 C270.2758789 68 270.3 67.5 270.3 67.1337891z"/>
		<path class="st1" d="M285.0258789 76.9121094V66.3427734c0-2.3046875-0.6269531-3.6533203-2.7988281-3.6533203 c-2.7011719 0-4.6425781 2.7314453-4.6425781 6.3535156v7.8691406h-2.9628906V60.5498047h2.8623047 c0 0.9550781-0.0634766 2.46875-0.2617188 3.421875l0.0654297 0 c0.9550781-2.2714844 2.9628906-3.7851562 5.7607422-3.7851562c3.7539062 0 4.9 2.3 4.9 5.2353516v11.4570312 H285.0258789z"/>
	</g>
	<g>
		<path class="st1" d="M317.3227539 67.6083984c0 2.234375-1.7783203 4.2783203-4.5117188 4.3 c-2.7646484 0-4.3457031-1.7451172-4.3457031-4.8066406c0-2.7324219 1.7773438-4.9052734 4.4111328-4.9052734 C315.7739258 62.2 317.3 64.4 317.3 67.6083984z M320.7124023 69.2 c0-6.6513672-3.1601562-9.5498047-7.5390625-9.5498047c-4.7080078 0-7.8369141 3.3916016-7.8369141 7.9 c0 4.2 2.5 7 6.7 6.9804688c2.2744141 0 4.2158203-0.9873047 5.2695312-2.5029297h0.0332031 c-0.0654297 0.4941406-0.1992188 1.2509766-0.2646484 1.6787109c-1.0546875 4.5107422-3.5234375 6.9794922-8.1972656 7 c-0.6269531 0-1.5146484-0.1318359-2.1396484-0.2958984v2.7324219c0.6582031 0.1 1.5 0.2 2 0.2 C316.1020508 83.3 320.7 78.5 320.7 69.2207031z"/>
		<path class="st1" d="M338.0541992 68.3320312c0 3.8505859-2.5351562 6.3203125-5.4980469 6.3 c-3.7207031 0-5.3330078-2.7988281-5.3330078-6.3525391c0-3.8212891 2.46875-6.1591797 5.4980469-6.1591797 C336.3100586 62.1 338.1 64.8 338.1 68.3320312z M341.0493164 68.1 c0-4.7744141-2.5673828-8.4951172-8.1630859-8.4951172c-4.609375 0-8.6591797 3.3916016-8.6591797 8.9 c0 6 3.5 8.6 8.1 8.6259766C337.065918 77.2 341 73.8 341 68.1337891z"/>
	</g>
	<path class="st1" d="M353.1508789 76.8574219V62.7675781l-3.7197266 1.5800781l-0.4941406-2.5341797l4.8740234-1.8779297h2.4013672 v16.921875H353.1508789z"/>
	<path class="st1" d="M372.8383789 67.6083984c0 2.234375-1.7783203 4.2783203-4.5107422 4.3 c-2.765625 0-4.3457031-1.7451172-4.3457031-4.8066406c0-2.7324219 1.7783203-4.9052734 4.4121094-4.9052734 C371.2905273 62.2 372.8 64.4 372.8 67.6083984z M376.230957 69.2 c0-6.6513672-3.1640625-9.5498047-7.5419922-9.5498047c-4.7070312 0-7.8339844 3.3916016-7.8339844 7.9 c0 4.2 2.5 7 6.7 6.9804688c2.2714844 0 4.2148438-0.9873047 5.2675781-2.5029297h0.0332031 c-0.0664062 0.4941406-0.1982422 1.2509766-0.2646484 1.6787109c-1.0537109 4.5107422-3.5224609 6.9794922-8.1982422 7 c-0.6230469 0-1.5146484-0.1318359-2.1386719-0.2958984v2.7324219c0.6582031 0.1 1.5 0.2 2 0.2 C371.6196289 83.3 376.2 78.5 376.2 69.2207031z"/>
	<path class="st1" d="M382.6821289 83.3447266c-0.8242188 0-1.6132812-0.0664062-2.3710938-0.1992188l0.2636719-2.6992188 c0.6582031 0.1 1.5 0.2 2.3 0.2294922c4.0498047 0 6.0576172-2.0732422 6.0576172-4.7714844 c0-2.6992188-2.171875-4.7402344-6.2216797-4.7402344c-0.625 0-1.1191406 0-1.7773438 0.0322266V59.9355469h10.4697266v2.8974609 h-7.671875v5.8261719c5.4326172 0 8.4 2.9 8.4 6.8 C392.1303711 80 388.2 83.3 382.7 83.3447266z"/>
	<path class="st1" d="M408.8422852 68.3320312c0 3.8505859-2.5361328 6.3203125-5.5 6.3 c-3.71875 0-5.3320312-2.7988281-5.3320312-6.3525391c0-3.8212891 2.46875-6.1591797 5.4980469-6.1591797 C407.097168 62.1 408.8 64.8 408.8 68.3320312z M411.8383789 68.1 c0-4.7744141-2.5693359-8.4951172-8.1660156-8.4951172c-4.6074219 0-8.6582031 3.3916016-8.6582031 8.9 c0 6 3.5 8.6 8.1 8.6259766C407.8530273 77.2 411.8 73.8 411.8 68.1337891z"/>
	<path class="st1" d="M415.3520508 69.7792969v-2.3701172h7.7714844v2.3701172H415.3520508z"/>
	<path class="st1" d="M439.2026367 69.7138672c0 2.8310547-1.6787109 4.9384766-4.4121094 4.9 c-3.0273438 0-4.4111328-2.4697266-4.4111328-5.2021484c0-2.2714844 1.4804688-4.5117188 4.5107422-4.5117188 C437.590332 64.9 439.2 66.8 439.2 69.7138672z M442.3637695 69.3 c0-4.1816406-2.5693359-6.9462891-6.8154297-6.9462891c-2.5029297 0-4.4443359 1.0537109-5.4326172 2.6982422l-0.0322266-0.0332031 c0.0976562-0.5917969 0.1972656-0.9550781 0.2626953-1.2822266c0.8564453-4.5126953 3.3574219-7.5400391 8.0654297-7.5400391 c0.5927734 0 1.2 0.1 1.8 0.1640625v-2.6328125c-0.4287109-0.0332031-1.1533203-0.0673828-1.5136719-0.0673828 c-6.8164062 0-11.7207031 4.7080078-11.7207031 14.0585938c0 6 2.8 9.5 7.4 9.5 C439.137207 77.2 442.4 73.9 442.4 69.2861328z"/>
</g>
</svg>
