<svg xmlns="http://www.w3.org/2000/svg" xmlns:xlink="http://www.w3.org/1999/xlink" version="1.1" x="0px" y="0px" width="213.8476562px" height="213.8476562px" viewBox="0 0 213.8476562 213.8476562" xml:space="preserve" class="style0">
<style>
.style0{enable-background: new 0 0 213.8476562 213.8476562;}
.st0{fill:#B51F54;}
.st1{fill:#FCB727;}
.st2{fill:#00498F;}
.st3{fill:#00A8A0;}
</style>
<path class="st1" d="M94.5600586 2.9589844l55.6289062 55.6289062l-11.0263672 11.0263672L83.5336914 14 c-3.5527344-3.5527344-3.9638672-8.9003906-0.9189453-11.9453125S91.0073242-0.59375 94.6 2.9589844z M127.362793 3.6 l38.8886719 38.8891602l-11.0263672 11.0263672l-38.8896484-38.8891602 c-3.5527344-3.5522461-3.9628906-8.8999023-0.9179688-11.9453125C118.4624023-0.3779297 123.8 0 127.4 3.6 z M69.4580078 10.1455078l64.5610352 64.5615234l-11.0263672 11.0263672L58.4311523 21.2 c-3.5522461-3.5527344-3.9633789-8.9003906-0.918457-11.9453125C60.5571289 6.2 65.9 6.6 69.5 10.1455078z M62.6801758 35.5996094l55.2587891 55.2592773l-11.0258789 11.0263672L51.6538086 46.6 c-3.5522461-3.5522461-3.9638672-8.9003906-0.9189453-11.9453125S59.1274414 32 62.7 35.5996094z"/>
<path class="st2" d="M2.9584961 119.2871094l55.6293945-55.628418l11.0258789 11.0263672l-55.6289062 55.6 c-3.5522461 3.5527344-8.9003906 3.9628906-11.9453125 0.9179688S-0.59375 122.8 3 119.2871094z M3.515625 86.3 l38.8896484-38.8891602l11.0263672 11.0263672L14.5424805 97.3 c-3.5527344 3.5527344-8.9003906 3.9638672-11.9453125 0.9189453S-0.0361328 89.9 3.5 86.3027344z M10.0756836 144.2070312L74.637207 79.6459961l11.0263672 11.0263672L21.1020508 155.2 c-3.5522461 3.5517578-8.9003906 3.9628906-11.9453125 0.9179688S6.5234375 147.8 10.1 144.2070312z M35.5302734 150.9853516l55.2587891-55.2597656l11.0263672 11.0263672l-55.2592773 55.3 c-3.5517578 3.5537109-8.9003906 3.9638672-11.9453125 0.9 C31.5664062 159.9 32 154.5 35.5 150.9853516z"/>
<path class="st3" d="M119.2875977 210.8896484l-55.6289062-55.6289062l11.0263672-11.0263672l55.6289062 55.6 c3.5527344 3.6 4 8.9 0.9 11.9 C128.1879883 214.9 122.8 214.4 119.3 210.8896484z M86.4995117 210.2617188l-38.8891602-38.8886719 l11.0268555-11.0263672l38.8886719 38.8896484c3.5527344 3.6 4 8.9 0.9 11.9 C95.3999023 214.2 90.1 213.8 86.5 210.2617188z M144.4038086 203.703125l-64.5610352-64.5625 l11.0263672-11.0253906l64.5620117 64.5605469c3.5517578 3.6 4 8.9 0.9 11.9 C153.3041992 207.7 148 207.3 144.4 203.703125z M151.1811523 178.2480469l-55.2587891-55.2587891 l11.0263672-11.0263672l55.2597656 55.2587891c3.5527344 3.6 4 8.9 0.9 11.9 S154.7338867 181.8 151.2 178.2480469z"/>
<path class="st0" d="M210.8881836 94.5600586l-55.6289062 55.6293945l-11.0253906-11.0273438l55.6289062-55.628418 c3.5517578-3.5522461 8.9003906-3.9638672 11.9453125-0.9189453S214.440918 91 210.9 94.5600586z M210.331543 127.3691406l-38.8886719 38.8896484l-11.0273438-11.0263672l38.8896484-38.8886719 c3.5517578-3.5527344 8.9003906-3.9648438 11.9453125-0.9199219S213.8842773 123.8 210.3 127.3691406z M203.7719727 69.4648438l-64.5615234 64.5615234L128.184082 123l64.5615234-64.5615234 c3.5527344-3.5522461 8.9003906-3.9633789 11.9453125-0.9189453 C207.7358398 60.6 207.3 65.9 203.8 69.4648438z M178.3178711 62.6875l-55.2597656 55.3 l-11.0263672-11.0268555l55.2587891-55.2592773c3.5527344-3.5527344 8.9003906-3.9638672 11.9453125-0.9189453 S181.8696289 59.1 178.3 62.6875z"/>
</svg>
