<svg xmlns="http://www.w3.org/2000/svg" xmlns:xlink="http://www.w3.org/1999/xlink" version="1.1" x="0px" y="0px" width="589.5424805px" height="213.847168px" viewBox="0 0 589.5424805 213.847168" xml:space="preserve" class="style0">
<style>
	.style0{enable-background: new 0 0 589.5424805 213.847168;}
	.st0{fill:#B62054;}
	.st1{fill:#231F20;}
	.st2{fill:#FDB827;}
	.st3{fill:none;}
	.st4{fill:#004990;}
	.st5{fill:#00A9A1;}
</style>
<g>
	<rect x="103.2" y="103.3" transform="matrix(-0.7071068 0.7071068 -0.7071068 -0.7071068 257.9871216 106.9204559)" class="st3" width="7.2" height="7.2"/>
	<path class="st3" d="M106.8496094 106.9"/>
</g>
<path class="st2" d="M94.5600586 2.9584961l55.6289062 55.6289062l-11.0263672 11.0263672L83.5336914 14 c-3.5527344-3.5527344-3.9638672-8.9003906-0.9189453-11.9453125S91.0073242-0.5942383 94.6 2.9584961z M127.3623047 3.5849609l38.8891602 38.8891602l-11.0263672 11.0263672l-38.8891602-38.8891602 c-3.5527344-3.5522461-3.9638672-8.8999023-0.9189453-11.9453125C118.4619141-0.378418 123.8 0 127.4 3.6 z M69.4580078 10.1450195L134.019043 74.706543l-11.0263672 11.0263672L58.4311523 21.2 c-3.5522461-3.5527344-3.9633789-8.9003906-0.918457-11.9453125C60.5571289 6.2 65.9 6.6 69.5 10.1450195z M62.6801758 35.5991211l55.2592773 55.2592773l-11.0263672 11.0263672L51.6538086 46.6 c-3.5522461-3.5522461-3.9638672-8.9003906-0.9189453-11.9453125S59.1274414 32 62.7 35.5991211z"/>
<path class="st4" d="M2.9584961 119.2871094l55.6293945-55.6289062l11.0258789 11.0263672l-55.6289062 55.6 c-3.5522461 3.5527344-8.9003906 3.9638672-11.9453125 0.9189453S-0.59375 122.8 3 119.2871094z M3.515625 86.3 l38.8896484-38.8891602l11.0263672 11.0263672L14.5424805 97.3 c-3.5527344 3.5527344-8.9003906 3.9638672-11.9453125 0.9189453S-0.0361328 89.9 3.5 86.3022461z M10.0756836 144.206543L74.637207 79.6455078L85.6635742 90.671875l-64.5615234 64.6 c-3.5522461 3.5517578-8.9003906 3.9628906-11.9453125 0.9179688S6.5234375 147.8 10.1 144.206543z M35.5302734 150.9848633l55.2587891-55.2597656l11.0263672 11.0263672l-55.2592773 55.3 c-3.5517578 3.5537109-8.9003906 3.9638672-11.9453125 0.9 C31.5664062 159.9 32 154.5 35.5 150.9848633z"/>
<path class="st5" d="M119.2875977 210.8891602l-55.6289062-55.6289062l11.0263672-11.0263672l55.6289062 55.6 c3.5522461 3.6 4 8.9 0.9 11.9 C128.1879883 214.9 122.8 214.4 119.3 210.8891602z M86.4995117 210.2612305l-38.8891602-38.8886719 l11.0268555-11.0263672l38.8886719 38.8896484c3.5527344 3.6 4 8.9 0.9 11.9 C95.3999023 214.2 90.1 213.8 86.5 210.2612305z M144.4042969 203.7026367l-64.5615234-64.5625 l11.0263672-11.0258789l64.5615234 64.5610352c3.5522461 3.6 4 8.9 0.9 11.9 C153.3046875 207.7 148 207.3 144.4 203.7026367z M151.1816406 178.2475586l-55.2592773-55.2587891 l11.0263672-11.0268555l55.2592773 55.2592773c3.5527344 3.6 4 8.9 0.9 11.9 S154.734375 181.8 151.2 178.2475586z"/>
<path class="st0" d="M210.8886719 94.5595703l-55.6289062 55.6293945l-11.0263672-11.0273438l55.6289062-55.628418 c3.5522461-3.5522461 8.9003906-3.9638672 11.9453125-0.9189453S214.440918 91 210.9 94.5595703z M210.331543 127.3691406l-38.8891602 38.8891602l-11.0263672-11.0263672l38.8891602-38.8891602 c3.5522461-3.5527344 8.9003906-3.9638672 11.9453125-0.9189453S213.8837891 123.8 210.3 127.3691406z M203.7719727 69.4643555l-64.5615234 64.5615234l-11.0263672-11.0263672l64.5615234-64.5615234 c3.5522461-3.5522461 8.9003906-3.9633789 11.9453125-0.9189453 C207.7353516 60.6 207.3 65.9 203.8 69.4643555z M178.3173828 62.6870117l-55.2592773 55.3 l-11.0263672-11.0263672l55.2592773-55.2592773c3.5522461-3.5527344 8.9003906-3.9638672 11.9453125-0.9189453 S181.8696289 59.1 178.3 62.6870117z"/>
<path class="st1" d="M555.137207 160.605957c-3.65625 3.0107422-16.3427734 13.1191406-26.0195312 13.1 c-8.3857422 0-12.4716797-7.3125-12.4716797-14.8398438c0-14.4111328 15.9121094-23.0141602 27.09375-27.5307617 l11.3974609-4.7319336V160.605957z M585.6713867 163.4018555c-1.5058594 8.8173828-6.2363281 10.1083984-8.8164062 10.1 c-6.6660156 0-6.6660156-6.453125-6.6660156-18.9267578v-34.84375c0-10.5385742 0-30.1108398-32.6855469-30.1108398 c-26.4482422 0-35.0498047 13.9799805-35.0498047 19.7871094c0 3.9 3.2 6 6.5 6 c7.0966797 0 8.1708984-7.3129883 9.03125-11.8295898c1.5048828-7.527832 10.1064453-9.2485352 17.6328125-9.2485352 c17.6328125 0 19.6 10.3 19.6 23.0136719v4.3017578l-16.3427734 6.7 c-29.6748047 12.0449219-39.5664062 22.3681641-39.5664062 34.6279297c0 12.5 11.6 18.3 21.3 18.3 c11.8271484 0 24.0839844-7.5273438 34.6210938-15.0546875c1.0742188 5.2 2.8 15.1 16.8 15.1 c11.8261719 0 17.2021484-8.171875 17.6328125-17.8505859H585.6713867z M467.9155273 161.3 c-11.6123047 15.0556641-24.9443359 15.0556641-27.5244141 15.0556641c-10.1064453 0-28.1689453-6.4521484-28.1689453-40.6503906 c0-6.4521484 0.2148438-39.574707 27.5234375-39.574707c13.546875 0 23.4 8.4 28.2 12.2597656V161.2504883z M467.9155273 102.3183594c-7.0966797-6.4521484-18.4931641-12.6894531-31.1796875-12.6894531 c-22.3642578 0-41.9326172 18.2817383-41.9326172 46.887207c0 28.6 21.1 46 40.9 46 c17.203125 0 28.3847656-10.96875 33.1152344-15.4863281c0 4.9 0 10.3 1.3 15.5 c4.0849609-0.8603516 16.3417969-2.3662109 27.09375-2.7958984v-4.7324219 c-14.1923828 0-14.1923828-1.2900391-14.1923828-24.7333984V34.5678711c-1.7197266 0-2.3652344 0.215332-7.9560547 1.5 c-3.4414062 0.8603516-13.3320312 2.7958984-22.1484375 3.0107422v4.7319336 c15.0527344 0 15.1 0.9 15.1 24.734375V102.3183594z M378.3540039 89.6 c-3.4404297 0-8.6015625 1.9355469-11.8271484 2.5805664c-8.1708984 1.5058594-13.9775391 2.5810547-19.5683594 3.0112305v4.7319336 c15.0527344 0 16.3 0 16.3 23.6586914v26.0249023c0 22.4 0 24.734375-12.6875 24.734375h-3.65625v4.7314453 h46.4482422v-4.7314453c-15.0527344 0-15.0527344-0.8603516-15.0527344-24.734375V89.6289062z M249.6308594 177.597168h5.1606445 c1.7202148-8.6035156 3.8706055-11.8300781 5.1606445-13.765625c3.440918 3.9 15.7 17.9 39.1 17.9 c27.3095703 0 44.7265625-16.9912109 44.7265625-41.0800781c0-27.1005859-17.4169922-35.2734375-45.1572266-47.5332031 c-16.5571289-7.3125-34.1894531-15.0556641-34.1894531-32.046875c0-9.4633789 6.4506836-21.7231445 24.5136719-21.7231445 c16.7724609 0 31.8 11.2 37.8 34.6279297h4.515625V36.71875h-4.515625 c-0.4296875 2.5810547-0.8603516 6.6674805-5.5908203 12.4746094c-5.1611328-5.5917969-14.1923828-15.0556641-32.9003906-15.0556641 c-23.6533203 0-37.6303711 16.7763672-37.6303711 35.2734375c0 27.1 23.4 37.2 39.4 44.1 c1.2900391 0.4 8.4 3.4 9.7 4.0869141c14.4082031 6.2 29 14.4 29 31.2 c0 13.1201172-10.5361328 27.7451172-31.609375 27.7451172c-33.3300781 0-40.4257812-34.8427734-42.3613281-44.7363281h-5.1606445 V177.597168z M356.4165039 65.2075195c0 5.9 4.9 11 10.8 11 c5.9355469 0 10.5986328-5.0878906 10.5986328-11.0244141c0-5.9360352-4.6630859-11.0239258-10.5986328-11.0239258 C361.0795898 54.2 356.4 59.3 356.4 65.2075195z"/>
</svg>
