<svg xmlns="http://www.w3.org/2000/svg" width="575.685px" height="85.362px" viewBox="0 0 575.685 85.362">
<style>.s0{fill:#F01E1E;}</style>
<path class="s0" d="M32.885 85.221c9.784 0 16.148-2.83 19.684-9.193v7.779h14.263V20.508H52.45v7.666c-4.125-6.252-10.725-9.316-19.919-9.316 -9.547 0-17.091 3.064-23.456 9.785C3.181 34.771 0 43.023 0 51.863 0 70.725 14.026 85.221 32.885 85.221M33.12 33.479c9.312 0 17.799 8.248 17.799 18.857 0 9.781-8.368 18.033-17.562 18.033 -9.9 0-18.271-7.781-18.271-18.742C15.086 41.373 23.338 33.479 33.12 33.479M104.467 85.362c13.412 0 23.872-6.635 29.094-18.035l-13.39-6.639c-2.62 6.697-7.889 10.059-15.823 10.059 -10.373 0-18.033-8.014-18.033-18.738 0-11.082 7.66-18.98 17.562-18.98 7.503 0 12.9 3.271 16.438 9.799l13.339-6.615C128.37 25.138 117.592 18.53 104.7 18.53c-9.544 0-17.915 3.652-24.515 10.609 -6.013 6.25-9.077 14.145-9.077 22.984 0 8.371 3.418 17.09 9.549 23.338C87.021 81.946 95.036 85.362 104.467 85.362"/>
<polygon class="s0" points="151.994 83.807 166.748 83.807 166.748 33.598 183.801 33.598 183.801 20.512 166.748 20.512 166.748 0 151.994 0 151.994 20.512 134.265 20.512 134.265 33.598 151.994 33.598"/>
<path d="M214.15 85.223c9.781 0 16.147-2.83 19.683-9.193v7.777h14.263V20.512h-14.38v7.664c-4.127-6.248-10.725-9.314-19.92-9.314 -9.547 0-17.093 3.066-23.456 9.783 -5.895 6.129-9.075 14.381-9.075 23.221C181.265 70.725 195.291 85.223 214.15 85.223M214.385 33.479c9.311 0 17.797 8.25 17.797 18.859 0 9.783-8.366 18.033-17.561 18.033 -9.902 0-18.27-7.779-18.27-18.742C196.352 41.375 204.601 33.479 214.385 33.479"/>
<polygon points="268.367 6.18 261.215 6.18 253.985 6.18 253.985 83.807 268.367 83.807"/>
<polygon points="288.682 6.18 281.882 6.18 274.305 6.18 274.305 83.807 288.682 83.807"/>
<path d="M365.407 28.172c-4.125-6.246-10.728-9.312-19.923-9.312 -9.547 0-17.092 3.066-23.455 9.783 -5.895 6.129-9.074 14.381-9.074 23.221 0 18.859 14.023 33.357 32.883 33.357 9.783 0 16.149-2.828 19.688-9.193v7.779h14.26V20.51h-14.379V28.172zM346.309 70.369c-9.898 0-18.27-7.779-18.27-18.742 0-10.254 8.252-18.15 18.035-18.15 9.314 0 17.8 8.25 17.8 18.859C363.874 62.119 355.506 70.369 346.309 70.369M417.029 19.215c-7.193 0-12.615 2.711-16.975 8.486V20.51h-14.381v63.297h14.264V56.695c0-15.322 3.064-23.102 13.789-23.102 10.727 0 13.084 7.191 13.084 22.158v28.055h14.732V50.332c0-8.252-0.35-14.85-4.123-20.746C432.941 22.75 426.223 19.215 417.029 19.215M478.917 70.745c-10.373 0-18.037-8.014-18.037-18.74 0-11.08 7.664-18.977 17.566-18.977 7.543 0 12.967 3.301 16.502 9.9l13.326-6.609C503.013 25.179 492.2 18.53 479.272 18.53c-9.549 0-17.918 3.652-24.52 10.607 -6.01 6.248-9.074 14.145-9.074 22.984 0 8.367 3.418 17.09 9.547 23.338 6.365 6.484 14.379 9.902 23.809 9.902 13.465 0 23.951-6.684 29.152-18.16l-13.389-6.643C492.194 67.349 486.903 70.745 478.917 70.745M575.685 53.4c0-8.369-1.768-15.088-6.012-20.746 -6.6-9.076-16.502-14.262-27.461-14.262 -8.725 0-17.094 3.771-23.574 10.607 -5.896 6.248-8.961 14.145-8.961 22.984 0 8.486 3.42 17.09 9.432 23.338 6.365 6.602 14.379 9.9 23.689 9.9 11.746 0 21.494-5.555 27.541-15.521l-12.662-6.281h-0.145c-3.066 5.066-8.607 7.895-15.088 7.895 -10.018 0-16.621-5.656-17.561-14.732h50.682C575.565 55.52 575.685 54.461 575.685 53.4M525.356 44.912c2.236-7.896 9.074-12.967 16.855-12.967 8.957 0 15.088 4.48 17.559 12.967H525.356zM294.147 83.807h14.376V27.629c0.001 0-6.642 0-6.642 0h-7.735V83.807zM300.548 6.18h-6.401v14.51h14.376V6.18H300.548z"/>
</svg>